<mxfile host="Electron" modified="2023-05-20T10:26:50.436Z" agent="Mozilla/5.0 (Macintosh; Intel Mac OS X 10_15_7) AppleWebKit/537.36 (KHTML, like Gecko) draw.io/21.2.1 Chrome/112.0.5615.87 Electron/24.1.2 Safari/537.36" etag="K5MQEPfiKb-FJUrZrc6G" version="21.2.1" type="device">
  <diagram name="第 1 页" id="C4-fYEdJvu3ZUtX_I3p4">
    <mxGraphModel dx="1242" dy="907" grid="1" gridSize="10" guides="1" tooltips="1" connect="1" arrows="1" fold="1" page="1" pageScale="1" pageWidth="827" pageHeight="1169" math="0" shadow="0">
      <root>
        <mxCell id="0" />
        <mxCell id="1" parent="0" />
        <mxCell id="2TXB2ZVQtALbhtRL05U3-3" value="&lt;font style=&quot;font-size: 20px;&quot;&gt;&lt;b&gt;Guest OS&lt;/b&gt;&lt;/font&gt;" style="html=1;whiteSpace=wrap;" parent="1" vertex="1">
          <mxGeometry x="290" y="300" width="130" height="70" as="geometry" />
        </mxCell>
        <mxCell id="2TXB2ZVQtALbhtRL05U3-5" value="&lt;b&gt;&lt;font style=&quot;font-size: 20px;&quot;&gt;Guest OS&lt;/font&gt;&lt;/b&gt;" style="html=1;whiteSpace=wrap;" parent="1" vertex="1">
          <mxGeometry x="470" y="300" width="130" height="70" as="geometry" />
        </mxCell>
        <mxCell id="2TXB2ZVQtALbhtRL05U3-6" value="" style="endArrow=none;dashed=1;html=1;dashPattern=1 3;strokeWidth=2;rounded=0;" parent="1" edge="1">
          <mxGeometry width="50" height="50" relative="1" as="geometry">
            <mxPoint x="130" y="400" as="sourcePoint" />
            <mxPoint x="730" y="400" as="targetPoint" />
          </mxGeometry>
        </mxCell>
        <mxCell id="2TXB2ZVQtALbhtRL05U3-7" value="&lt;b&gt;&lt;font style=&quot;font-size: 25px;&quot;&gt;U mode&lt;/font&gt;&lt;/b&gt;" style="text;html=1;align=center;verticalAlign=middle;resizable=0;points=[];autosize=1;strokeColor=none;fillColor=none;" parent="1" vertex="1">
          <mxGeometry x="155" y="315" width="120" height="40" as="geometry" />
        </mxCell>
        <mxCell id="2TXB2ZVQtALbhtRL05U3-10" value="&lt;b&gt;&lt;font style=&quot;font-size: 20px;&quot;&gt;Hypocaust&lt;/font&gt;&lt;/b&gt;" style="rounded=0;whiteSpace=wrap;html=1;movable=1;resizable=1;rotatable=1;deletable=1;editable=1;locked=0;connectable=1;" parent="1" vertex="1">
          <mxGeometry x="290" y="440" width="310" height="90" as="geometry" />
        </mxCell>
        <mxCell id="2TXB2ZVQtALbhtRL05U3-11" value="&lt;font style=&quot;font-size: 25px;&quot;&gt;&lt;b&gt;S mode&lt;/b&gt;&lt;/font&gt;" style="text;html=1;align=center;verticalAlign=middle;resizable=0;points=[];autosize=1;strokeColor=none;fillColor=none;" parent="1" vertex="1">
          <mxGeometry x="160" y="465" width="110" height="40" as="geometry" />
        </mxCell>
        <mxCell id="2TXB2ZVQtALbhtRL05U3-16" value="" style="endArrow=none;dashed=1;html=1;dashPattern=1 3;strokeWidth=2;rounded=0;" parent="1" source="2TXB2ZVQtALbhtRL05U3-37" edge="1">
          <mxGeometry width="50" height="50" relative="1" as="geometry">
            <mxPoint x="130" y="560" as="sourcePoint" />
            <mxPoint x="730" y="560" as="targetPoint" />
          </mxGeometry>
        </mxCell>
        <mxCell id="2TXB2ZVQtALbhtRL05U3-18" value="&lt;b&gt;&lt;font style=&quot;font-size: 20px;&quot;&gt;RustSBI&lt;/font&gt;&lt;/b&gt;" style="rounded=0;whiteSpace=wrap;html=1;" parent="1" vertex="1">
          <mxGeometry x="290" y="590" width="310" height="100" as="geometry" />
        </mxCell>
        <mxCell id="2TXB2ZVQtALbhtRL05U3-19" value="&lt;b&gt;&lt;font style=&quot;font-size: 25px;&quot;&gt;M Mode&lt;/font&gt;&lt;/b&gt;" style="text;html=1;align=center;verticalAlign=middle;resizable=0;points=[];autosize=1;strokeColor=none;fillColor=none;" parent="1" vertex="1">
          <mxGeometry x="160" y="620" width="120" height="40" as="geometry" />
        </mxCell>
        <mxCell id="2TXB2ZVQtALbhtRL05U3-21" value="" style="endArrow=classic;html=1;rounded=0;exitX=0.216;exitY=1.022;exitDx=0;exitDy=0;exitPerimeter=0;entryX=0.216;entryY=0;entryDx=0;entryDy=0;entryPerimeter=0;" parent="1" source="2TXB2ZVQtALbhtRL05U3-10" target="2TXB2ZVQtALbhtRL05U3-18" edge="1">
          <mxGeometry width="50" height="50" relative="1" as="geometry">
            <mxPoint x="370" y="590" as="sourcePoint" />
            <mxPoint x="420" y="540" as="targetPoint" />
          </mxGeometry>
        </mxCell>
        <mxCell id="2TXB2ZVQtALbhtRL05U3-22" value="&lt;font style=&quot;font-size: 16px;&quot;&gt;sbi call&lt;/font&gt;" style="text;html=1;align=center;verticalAlign=middle;resizable=0;points=[];autosize=1;strokeColor=none;fillColor=none;" parent="1" vertex="1">
          <mxGeometry x="270" y="545" width="70" height="30" as="geometry" />
        </mxCell>
        <mxCell id="2TXB2ZVQtALbhtRL05U3-23" value="" style="endArrow=classic;html=1;rounded=0;exitX=0.25;exitY=1;exitDx=0;exitDy=0;" parent="1" source="2TXB2ZVQtALbhtRL05U3-3" edge="1">
          <mxGeometry width="50" height="50" relative="1" as="geometry">
            <mxPoint x="350" y="430" as="sourcePoint" />
            <mxPoint x="323" y="440" as="targetPoint" />
          </mxGeometry>
        </mxCell>
        <mxCell id="2TXB2ZVQtALbhtRL05U3-25" value="&lt;font style=&quot;font-size: 16px;&quot;&gt;Trap/sbi call&lt;/font&gt;" style="text;html=1;align=center;verticalAlign=middle;resizable=0;points=[];autosize=1;strokeColor=none;fillColor=none;" parent="1" vertex="1">
          <mxGeometry x="210" y="370" width="110" height="30" as="geometry" />
        </mxCell>
        <mxCell id="2TXB2ZVQtALbhtRL05U3-26" value="" style="endArrow=classic;html=1;rounded=0;" parent="1" edge="1">
          <mxGeometry width="50" height="50" relative="1" as="geometry">
            <mxPoint x="389" y="440" as="sourcePoint" />
            <mxPoint x="390" y="370" as="targetPoint" />
          </mxGeometry>
        </mxCell>
        <mxCell id="2TXB2ZVQtALbhtRL05U3-31" value="&lt;font style=&quot;font-size: 16px;&quot;&gt;Emulate/sbi return&lt;/font&gt;" style="text;html=1;strokeColor=none;fillColor=none;align=center;verticalAlign=middle;whiteSpace=wrap;rounded=0;" parent="1" vertex="1">
          <mxGeometry x="400" y="370" width="135" height="30" as="geometry" />
        </mxCell>
        <mxCell id="2TXB2ZVQtALbhtRL05U3-35" value="" style="endArrow=classic;html=1;rounded=0;entryX=0.645;entryY=1;entryDx=0;entryDy=0;entryPerimeter=0;" parent="1" target="2TXB2ZVQtALbhtRL05U3-10" edge="1">
          <mxGeometry width="50" height="50" relative="1" as="geometry">
            <mxPoint x="490" y="590" as="sourcePoint" />
            <mxPoint x="540" y="540" as="targetPoint" />
          </mxGeometry>
        </mxCell>
        <mxCell id="2TXB2ZVQtALbhtRL05U3-36" value="" style="endArrow=none;dashed=1;html=1;dashPattern=1 3;strokeWidth=2;rounded=0;" parent="1" target="2TXB2ZVQtALbhtRL05U3-37" edge="1">
          <mxGeometry width="50" height="50" relative="1" as="geometry">
            <mxPoint x="130" y="560" as="sourcePoint" />
            <mxPoint x="730" y="560" as="targetPoint" />
            <Array as="points">
              <mxPoint x="330" y="560" />
            </Array>
          </mxGeometry>
        </mxCell>
        <mxCell id="2TXB2ZVQtALbhtRL05U3-37" value="&lt;font style=&quot;font-size: 16px;&quot;&gt;sbi return&lt;/font&gt;" style="text;html=1;strokeColor=none;fillColor=none;align=center;verticalAlign=middle;whiteSpace=wrap;rounded=0;" parent="1" vertex="1">
          <mxGeometry x="490" y="545" width="80" height="30" as="geometry" />
        </mxCell>
        <mxCell id="hzA4w_F5BhsaTCWp1pAf-3" value="" style="curved=1;endArrow=classic;html=1;rounded=0;entryX=1;entryY=0.5;entryDx=0;entryDy=0;strokeColor=default;dashed=1;" edge="1" parent="1" target="2TXB2ZVQtALbhtRL05U3-10">
          <mxGeometry width="50" height="50" relative="1" as="geometry">
            <mxPoint x="600" y="635" as="sourcePoint" />
            <mxPoint x="650" y="585" as="targetPoint" />
            <Array as="points">
              <mxPoint x="650" y="635" />
              <mxPoint x="720" y="520" />
            </Array>
          </mxGeometry>
        </mxCell>
        <mxCell id="hzA4w_F5BhsaTCWp1pAf-4" value="&lt;font style=&quot;font-size: 16px;&quot;&gt;IRQ&lt;/font&gt;" style="text;html=1;strokeColor=none;fillColor=none;align=center;verticalAlign=middle;whiteSpace=wrap;rounded=0;" vertex="1" parent="1">
          <mxGeometry x="610" y="505" width="130" height="60" as="geometry" />
        </mxCell>
        <mxCell id="hzA4w_F5BhsaTCWp1pAf-5" value="" style="curved=1;endArrow=classic;html=1;rounded=0;entryX=1;entryY=0.75;entryDx=0;entryDy=0;dashed=1;" edge="1" parent="1" target="2TXB2ZVQtALbhtRL05U3-3">
          <mxGeometry width="50" height="50" relative="1" as="geometry">
            <mxPoint x="600" y="480" as="sourcePoint" />
            <mxPoint x="650" y="430" as="targetPoint" />
            <Array as="points">
              <mxPoint x="650" y="480" />
              <mxPoint x="720" y="370" />
            </Array>
          </mxGeometry>
        </mxCell>
        <mxCell id="hzA4w_F5BhsaTCWp1pAf-6" value="&lt;font style=&quot;font-size: 16px;&quot;&gt;Interrupt Inject&lt;/font&gt;" style="text;html=1;strokeColor=none;fillColor=none;align=center;verticalAlign=middle;whiteSpace=wrap;rounded=0;" vertex="1" parent="1">
          <mxGeometry x="610" y="420" width="110" height="70" as="geometry" />
        </mxCell>
        <mxCell id="hzA4w_F5BhsaTCWp1pAf-7" value="&lt;font style=&quot;font-size: 16px;&quot;&gt;SPT&lt;/font&gt;" style="rounded=1;whiteSpace=wrap;html=1;" vertex="1" parent="1">
          <mxGeometry x="300" y="455" width="85" height="60" as="geometry" />
        </mxCell>
        <mxCell id="hzA4w_F5BhsaTCWp1pAf-8" value="" style="endArrow=classic;html=1;rounded=0;exitX=0.5;exitY=1;exitDx=0;exitDy=0;entryX=0.21;entryY=0.111;entryDx=0;entryDy=0;entryPerimeter=0;" edge="1" parent="1" source="2TXB2ZVQtALbhtRL05U3-3" target="2TXB2ZVQtALbhtRL05U3-10">
          <mxGeometry width="50" height="50" relative="1" as="geometry">
            <mxPoint x="350" y="310" as="sourcePoint" />
            <mxPoint x="400" y="260" as="targetPoint" />
          </mxGeometry>
        </mxCell>
        <mxCell id="hzA4w_F5BhsaTCWp1pAf-11" value="&lt;font style=&quot;font-size: 16px;&quot;&gt;Memory Access&lt;/font&gt;" style="text;html=1;strokeColor=none;fillColor=none;align=center;verticalAlign=middle;whiteSpace=wrap;rounded=0;" vertex="1" parent="1">
          <mxGeometry x="340" y="400" width="60" height="30" as="geometry" />
        </mxCell>
        <mxCell id="hzA4w_F5BhsaTCWp1pAf-12" value="" style="rounded=0;whiteSpace=wrap;html=1;dashed=1;" vertex="1" parent="1">
          <mxGeometry x="290" y="740" width="310" height="90" as="geometry" />
        </mxCell>
        <mxCell id="hzA4w_F5BhsaTCWp1pAf-13" value="&lt;font style=&quot;font-size: 16px;&quot;&gt;&lt;b&gt;CLINT&lt;/b&gt;&lt;/font&gt;" style="rounded=0;whiteSpace=wrap;html=1;dashed=1;" vertex="1" parent="1">
          <mxGeometry x="312" y="755" width="86" height="60" as="geometry" />
        </mxCell>
        <mxCell id="hzA4w_F5BhsaTCWp1pAf-15" value="&lt;span style=&quot;font-size: 16px;&quot;&gt;&lt;b&gt;UART&lt;/b&gt;&lt;/span&gt;" style="rounded=0;whiteSpace=wrap;html=1;dashed=1;" vertex="1" parent="1">
          <mxGeometry x="414" y="755" width="86" height="60" as="geometry" />
        </mxCell>
        <mxCell id="hzA4w_F5BhsaTCWp1pAf-16" value="&lt;font style=&quot;font-size: 25px;&quot;&gt;&lt;b&gt;Hardware&lt;/b&gt;&lt;/font&gt;" style="text;html=1;strokeColor=none;fillColor=none;align=center;verticalAlign=middle;whiteSpace=wrap;rounded=0;" vertex="1" parent="1">
          <mxGeometry x="170" y="755" width="100" height="30" as="geometry" />
        </mxCell>
        <mxCell id="hzA4w_F5BhsaTCWp1pAf-17" value="......." style="text;html=1;strokeColor=none;fillColor=none;align=center;verticalAlign=middle;whiteSpace=wrap;rounded=0;" vertex="1" parent="1">
          <mxGeometry x="510" y="770" width="60" height="30" as="geometry" />
        </mxCell>
      </root>
    </mxGraphModel>
  </diagram>
</mxfile>
